<svg width="256" height="256" viewBox="0 0 256 256" fill="none" xmlns="http://www.w3.org/2000/svg">
<path d="M0 9C0 4.02944 4.02944 0 9 0H247C251.971 0 256 4.02944 256 9V247C256 251.971 251.971 256 247 256H9C4.02944 256 0 251.971 0 247V9Z" fill="black"/>
<path d="M51.207 104.71C44.0552 104.71 39.1768 101.49 36.4771 96.3745H36.0508V104H25.8203V35.939H36.335V61.0415H36.7612C39.1294 56.542 44.7656 53.2739 51.2544 53.2739C62.7637 53.2739 70.6733 61.4678 70.6733 76.624V81.2656C70.6733 95.9956 63.0005 104.71 51.207 104.71ZM48.6021 96.043C55.3276 96.043 59.9692 90.6909 59.9692 80.8394V77.145C59.9692 67.2461 55.3276 61.9414 48.6021 61.9414C40.9766 61.9414 36.2402 67.1987 36.2402 77.145V80.7446C36.2402 90.7383 40.9766 96.043 48.6021 96.043ZM82.3721 104V35.939H92.8867V104H82.3721ZM106.575 104V53.937H117.089V60.5205H117.468C118.747 57.3945 122.489 53.2266 129.451 53.2266C130.825 53.2266 132.009 53.3213 133.003 53.5107V62.7939C132.104 62.5571 130.256 62.415 128.504 62.415C120.073 62.415 117.231 67.625 117.231 74.3506V104H106.575ZM134.424 98.4585C134.424 94.9062 137.313 91.9697 140.913 91.9697C144.465 91.9697 147.402 94.9062 147.402 98.4585C147.402 102.058 144.465 104.995 140.913 104.995C137.313 104.995 134.424 102.058 134.424 98.4585ZM29.2305 220V178.368H22.2207V169.937H29.2305V164.964C29.2305 155.112 34.251 150.897 45.2393 150.897C47.5601 150.897 48.981 151.086 49.8809 151.181V159.091C49.1704 158.996 48.4126 158.901 47.0391 158.901C42.0186 158.901 39.5083 160.512 39.5083 165.816V169.937H49.2651V178.368H39.6504V220H29.2305ZM102.644 169.937C100.512 176.899 85.6401 219.195 85.5928 219.337L84.314 222.794C80.1934 233.877 74.6519 237.572 64.895 237.572C63.0479 237.572 60.8218 237.382 59.3535 237.098V229.141C60.1587 229.283 61.8164 229.378 63.1899 229.378C68.8735 229.378 71.5732 227.483 72.6626 222.558L73.2783 220.379L55.4224 169.937H67.0737L79.0566 209.722H79.3882L91.5132 169.937H102.644ZM108.99 157.717C108.99 154.26 111.832 151.75 115.242 151.75C118.652 151.75 121.447 154.26 121.447 157.717C121.447 161.175 118.652 163.638 115.242 163.638C111.832 163.638 108.99 161.175 108.99 157.717ZM109.985 220V169.937H120.5V220H109.985Z" fill="white"/>
</svg>
